<svg xmlns="http://www.w3.org/2000/svg" width="20.828" height="15.911" viewBox="0 0 20.828 15.911">
  <g id="Group_140" data-name="Group 140" transform="translate(-33.795 -160.755)">
    <g id="Group_131" data-name="Group 131" transform="translate(50.448 162.753)">
      <path id="Path_127" data-name="Path 127" d="M0,0H0A.586.586,0,0,0-.825-.044a.582.582,0,0,0-.193.4A.581.581,0,0,0-.869.781,5.148,5.148,0,0,1,.452,4.228,5.146,5.146,0,0,1-.869,7.674.585.585,0,0,0-.825,8.5a.58.58,0,0,0,.39.15A.588.588,0,0,0,0,8.455,6.312,6.312,0,0,0,1.621,4.228,6.314,6.314,0,0,0,0,0" fill="#b8cad9"/>
    </g>
    <g id="Group_132" data-name="Group 132" transform="translate(52.252 160.941)">
      <path id="Path_128" data-name="Path 128" d="M0,0H0A.586.586,0,0,0-.826-.031.586.586,0,0,0-.856.8,7.684,7.684,0,0,1,1.2,6.04,7.684,7.684,0,0,1-.856,11.285a.583.583,0,0,0,.031.825.579.579,0,0,0,.4.156A.587.587,0,0,0,0,12.08,8.851,8.851,0,0,0,2.371,6.04,8.851,8.851,0,0,0,0,0" fill="#b8cad9"/>
    </g>
    <g id="Group_133" data-name="Group 133" transform="translate(46.617 164.427)">
      <path id="Path_129" data-name="Path 129" d="M0,0V-2.283a.971.971,0,0,0-.508-.842,1.365,1.365,0,0,0-1.327-.017c-.016.009-.031.019-.046.029l-1.248.85a.605.605,0,0,0-.066.053C-5.412-.373-9.432-.566-9.472-.567a.5.5,0,0,0-.079,0h-.594a2.68,2.68,0,0,0-2.677,2.677V3.292a2.691,2.691,0,0,0,1.473,2.39,9.605,9.605,0,0,0,1.812,5.961c.014.017.028.034.042.049a1.666,1.666,0,0,0,1.192.547,1.357,1.357,0,0,0,.764-.234,1.79,1.79,0,0,0,.371-2.372,9.508,9.508,0,0,1-.8-3.622A8.825,8.825,0,0,1-3.2,7.608a.854.854,0,0,0,.073.059l1.247.849a.4.4,0,0,0,.047.029A1.378,1.378,0,0,0-.508,8.528.97.97,0,0,0,0,7.687V5.108A2.6,2.6,0,0,0,1.744,2.554,2.6,2.6,0,0,0,0,0M.021,1.3A1.6,1.6,0,0,1,.576,2.554,1.6,1.6,0,0,1,.021,3.81ZM-1.168-2.136V7.541a.177.177,0,0,1-.078-.005l-1.189-.81c-2.11-1.76-5.427-1.932-6.633-1.932h-.04V.61h.04c1.207,0,4.523-.172,6.623-1.925l1.183-.808a.2.2,0,0,1,.094-.013M-8.195,11.038c-.107.074-.284.021-.425-.121a8.363,8.363,0,0,1-1.559-4.948h.631c.024,0,.047,0,.076,0,.008,0,.13-.006.336-.007a10.718,10.718,0,0,0,.9,4.148l0,.008c.244.526.155.837.035.918M-10.276,4.8l-.1-.011-.1-.018-.028-.007-.073-.019a1.518,1.518,0,0,1-1.085-1.448V2.111a1.514,1.514,0,0,1,1.378-1.5Z" fill="#b8cad9"/>
    </g>
  </g>
</svg>
