<svg xmlns="http://www.w3.org/2000/svg" xmlns:xlink="http://www.w3.org/1999/xlink" width="1501" height="1066" viewBox="0 0 1501 1066">
  <defs>
    <clipPath id="clip-path">
      <path id="Path_37" data-name="Path 37" d="M0,0H1501V-1066H0Z" fill="none"/>
    </clipPath>
  </defs>
  <g id="Group_35" data-name="Group 35" transform="translate(0 1066)" clip-path="url(#clip-path)">
    <g id="Group_26" data-name="Group 26" transform="translate(527.85 -870.707)">
      <path id="Path_28" data-name="Path 28" d="M0,0H0V0a1.754,1.754,0,0,0,.515-1.24h0A1.755,1.755,0,0,0,0-2.484L-3.459-5.945A1.756,1.756,0,0,0-4.7-6.459v0a1.75,1.75,0,0,0-1.241.512l-9.292,9.292a.507.507,0,0,0-.123.2l-2.429,6.866a1.07,1.07,0,0,0-.029.625,1.142,1.142,0,0,0,.307.533,1.138,1.138,0,0,0,.534.307,1.066,1.066,0,0,0,.624-.028l6.865-2.433v0a.5.5,0,0,0,.193-.122l.086-.085A.55.55,0,0,0-9.1,9.1l7.144-7.14.025-.023a.261.261,0,0,0,.023-.025ZM-7.492-2.922l1.875,1.875-6.722,6.722-.837-.283a.573.573,0,0,1-.035-.057l-.878-1.66ZM-16.7,10.862a.031.031,0,0,1-.022,0,.117.117,0,0,1-.054-.033.106.106,0,0,1-.032-.052.042.042,0,0,1,0-.024l.65-1.837,1.366.386.416.733Zm3.451-1.223-.638-1.123a.585.585,0,0,0-.35-.276l-1.526-.431,1.076-3.041.558,1.054a1.274,1.274,0,0,0,.22.307.976.976,0,0,0,.39.245l2.377.8a.313.313,0,0,1,.03.042l.85,1.362Zm3.822-1.686-.8-1.287a1.26,1.26,0,0,0-.214-.262,1.023,1.023,0,0,0-.353-.21l-.439-.147L-4.879-.309-3.021,1.55ZM-.734-.734-2.319.849-4.547-1.379-6.791-3.623l1.585-1.585a.709.709,0,0,1,.5-.209h0a.711.711,0,0,1,.505.208L-.736-1.746a.709.709,0,0,1,.21.5h0a.719.719,0,0,1-.207.506h0Z" fill="#b8cad9"/>
    </g>
    <g id="Group_142" data-name="Group 142">
      <g id="Group_27" data-name="Group 27" transform="translate(246.117 -798.989)">
        <path id="Path_29" data-name="Path 29" d="M0,0H4.833A1.011,1.011,0,0,0,5.844-1.011a1.011,1.011,0,0,0-1.011-1.01H0a1.01,1.01,0,0,0-1.01,1.01A1.01,1.01,0,0,0,0,0" fill="#b8cad9"/>
      </g>
      <g id="Group_28" data-name="Group 28" transform="translate(246.117 -793.029)">
        <path id="Path_30" data-name="Path 30" d="M0,0H4.833A1.01,1.01,0,0,0,5.844-1.01,1.01,1.01,0,0,0,4.833-2.021H0A1.009,1.009,0,0,0-1.01-1.01,1.009,1.009,0,0,0,0,0" fill="#b8cad9"/>
      </g>
      <g id="Group_29" data-name="Group 29" transform="translate(255.375 -793.029)">
        <path id="Path_31" data-name="Path 31" d="M0,0H4.836A1.01,1.01,0,0,0,5.845-1.01,1.01,1.01,0,0,0,4.836-2.021H0A1.011,1.011,0,0,0-1.01-1.01,1.01,1.01,0,0,0,0,0" fill="#b8cad9"/>
      </g>
      <g id="Group_30" data-name="Group 30" transform="translate(255.375 -798.989)">
        <path id="Path_32" data-name="Path 32" d="M0,0H4.836A1.011,1.011,0,0,0,5.845-1.011a1.011,1.011,0,0,0-1.009-1.01H0a1.012,1.012,0,0,0-1.01,1.01A1.011,1.011,0,0,0,0,0" fill="#b8cad9"/>
      </g>
      <g id="Group_31" data-name="Group 31" transform="translate(264.671 -814.178)">
        <path id="Path_33" data-name="Path 33" d="M0,0A3.321,3.321,0,0,0-2.357-.979H-4.513V-3.812a1.01,1.01,0,0,0-1.01-1.01,1.011,1.011,0,0,0-1.011,1.01V-.979H-25.741V-3.812a1.01,1.01,0,0,0-1.01-1.01,1.01,1.01,0,0,0-1.01,1.01V-.979h-2.156A3.322,3.322,0,0,0-32.274,0l-.06.063a3.323,3.323,0,0,0-.919,2.294V29.842a3.332,3.332,0,0,0,.979,2.358,3.326,3.326,0,0,0,2.357.978h27.56A3.33,3.33,0,0,0,0,32.2H0A3.335,3.335,0,0,0,.98,29.842V2.357A3.329,3.329,0,0,0,0,0M-1.041,29.842a1.317,1.317,0,0,1-.385.929v0a1.32,1.32,0,0,1-.932.384h-27.56a1.312,1.312,0,0,1-.93-.387,1.313,1.313,0,0,1-.386-.929V10.071H-1.041Zm0-21.79H-31.233V2.357a1.318,1.318,0,0,1,.347-.894l.039-.035a1.312,1.312,0,0,1,.93-.387h2.156V3.874a1.01,1.01,0,0,0,1.01,1.01,1.009,1.009,0,0,0,1.01-1.01V1.041H-6.534V3.874a1.01,1.01,0,0,0,1.011,1.01,1.01,1.01,0,0,0,1.01-1.01V1.041h2.156a1.316,1.316,0,0,1,.931.387,1.315,1.315,0,0,1,.385.929Z" fill="#b8cad9"/>
      </g>
      <g id="Group_32" data-name="Group 32" transform="translate(236.857 -787.068)">
        <path id="Path_34" data-name="Path 34" d="M0,0H4.836a1.013,1.013,0,0,0,1.01-1.011,1.011,1.011,0,0,0-1.01-1.01H0a1.012,1.012,0,0,0-1.011,1.01A1.013,1.013,0,0,0,0,0" fill="#b8cad9"/>
      </g>
      <g id="Group_33" data-name="Group 33" transform="translate(246.117 -787.068)">
        <path id="Path_35" data-name="Path 35" d="M0,0H4.833A1.011,1.011,0,0,0,5.844-1.011a1.01,1.01,0,0,0-1.011-1.01H0a1.009,1.009,0,0,0-1.01,1.01A1.011,1.011,0,0,0,0,0" fill="#b8cad9"/>
      </g>
      <g id="Group_34" data-name="Group 34" transform="translate(236.857 -793.029)">
        <path id="Path_36" data-name="Path 36" d="M0,0H4.836a1.011,1.011,0,0,0,1.01-1.01,1.011,1.011,0,0,0-1.01-1.011H0A1.012,1.012,0,0,0-1.011-1.01,1.012,1.012,0,0,0,0,0" fill="#b8cad9"/>
      </g>
    </g>
  </g>
</svg>
