<svg xmlns="http://www.w3.org/2000/svg" width="19.434" height="16.991" viewBox="0 0 19.434 16.991">
  <g id="Group_141" data-name="Group 141" transform="translate(-33.631 -93.764)">
    <g id="Group_127" data-name="Group 127" transform="translate(49.111 100.786)">
      <path id="Path_123" data-name="Path 123" d="M0,0A.579.579,0,0,0-.578.579V8.813H-10.947V.6a.578.578,0,0,0-.578-.578A.579.579,0,0,0-12.1.6V8.9A1.054,1.054,0,0,0-11.07,9.969H-.456A1.054,1.054,0,0,0,.578,8.9V.579A.579.579,0,0,0,0,0" fill="#b8cad9"/>
    </g>
    <g id="Group_128" data-name="Group 128" transform="translate(45.762 107.885)">
      <path id="Path_124" data-name="Path 124" d="M0,0A.653.653,0,0,0,.652-.652V-5.479A.653.653,0,0,0,0-6.131H-4.827a.652.652,0,0,0-.652.652V-.652A.652.652,0,0,0-4.827,0ZM-4.322-4.974h1.33v1.33h-1.33Zm0,1.33,0,1.157h1.33v1.33h-1.33Zm0,1.33,2.487-3.817H-.5v1.33h-1.33Zm0,1.33,0,1.157H-.5v1.33h-1.33Zm0,1.33" fill="#b8cad9"/>
    </g>
    <g id="Group_129" data-name="Group 129" transform="translate(52.861 101.675)">
      <path id="Path_125" data-name="Path 125" d="M0,0-3.172-2.7V-6a1.111,1.111,0,0,0-1.11-1.11H-5.52A1.11,1.11,0,0,0-6.629-6v.361L-9.138-7.772a.575.575,0,0,0-.75,0L-19.026,0a.572.572,0,0,0-.2.394.571.571,0,0,0,.136.421.572.572,0,0,0,.394.2.581.581,0,0,0,.421-.136l8.764-7.454L-.749.881a.576.576,0,0,0,.374.138.577.577,0,0,0,.441-.2A.575.575,0,0,0,.2.394.576.576,0,0,0,0,0M-4.329-5.953v2.271l-1.143-.973v-1.3Z" fill="#b8cad9"/>
    </g>
  </g>
</svg>
