<svg xmlns="http://www.w3.org/2000/svg" width="19.125" height="13.297" viewBox="0 0 19.125 13.297">
  <g id="Group_130" data-name="Group 130" transform="translate(18.019)">
    <path id="Path_126" data-name="Path 126" d="M0,0H-16.913a1.107,1.107,0,0,0-1.106,1.106V12.191A1.107,1.107,0,0,0-16.913,13.3H0a1.107,1.107,0,0,0,1.106-1.106V1.106A1.107,1.107,0,0,0,0,0M.013,1.706v9.885L-5.838,6.649Zm-15.97-.612h15l-7.5,6.336Zm5.729,6.27,1.166.986a.908.908,0,0,0,.113.081l.02.013a.956.956,0,0,0,.441.134h.064a.971.971,0,0,0,.376-.1.946.946,0,0,0,.2-.13l1.166-.985L-.956,12.2h-15ZM-8.431,8.462Zm-2.644-1.813-5.851,4.942V1.706Z" fill="#b8cad9"/>
  </g>
</svg>
