<svg xmlns="http://www.w3.org/2000/svg" xmlns:xlink="http://www.w3.org/1999/xlink" width="1501" height="1066" viewBox="0 0 1501 1066">
  <defs>
    <clipPath id="clip-path">
      <path id="Path_12" data-name="Path 12" d="M0,0H1501V-1066H0Z" fill="none"/>
    </clipPath>
  </defs>
  <g id="Group_10" data-name="Group 10" transform="translate(0 1066)" clip-path="url(#clip-path)">
    <g id="Group_6" data-name="Group 6" transform="translate(1461.961 -1028.181)">
      <path id="Path_8" data-name="Path 8" d="M0,0H0A.479.479,0,0,0-.025-.046L-1.346-2.293A.418.418,0,0,0-1.4-2.368,12.916,12.916,0,0,1-3.274-6.661V-9.773a5.481,5.481,0,0,0-5.475-5.475h-.162a5.481,5.481,0,0,0-5.475,5.475v3.112a12.94,12.94,0,0,1-1.868,4.284.566.566,0,0,0-.06.085L-17.635-.047A.522.522,0,0,0-17.659,0a2.192,2.192,0,0,0,.1,2.016,1.175,1.175,0,0,0,.988.592h4A3.836,3.836,0,0,0-8.83,5.925,3.837,3.837,0,0,0-5.087,2.608h4A1.174,1.174,0,0,0-.1,2.016,2.193,2.193,0,0,0,0,0M-6.316,2.608A2.6,2.6,0,0,1-8.83,4.715a2.6,2.6,0,0,1-2.514-2.107Zm1.851-9.042a14.109,14.109,0,0,0,2.1,4.788L-1.085.536a1.017,1.017,0,0,1,.01.742.548.548,0,0,1-.064.12h-15.38a.414.414,0,0,1-.065-.12,1.014,1.014,0,0,1,0-.73L-15.3-1.636a14.146,14.146,0,0,0,2.1-4.8.626.626,0,0,0,.018-.149V-9.773a4.27,4.27,0,0,1,4.265-4.265h.162A4.269,4.269,0,0,1-4.484-9.773v3.189a.593.593,0,0,0,.019.15" fill="#b8cad9"/>
    </g>
    <g id="Group_7" data-name="Group 7" transform="translate(1 -1004.126)">
      <path id="Path_9" data-name="Path 9" d="M0,0H1500" fill="none" stroke="#184463" stroke-width="1"/>
    </g>
    <g id="Group_8" data-name="Group 8" transform="translate(166 -1004)">
      <path id="Path_10" data-name="Path 10" d="M0,0V1004" fill="none" stroke="#184463" stroke-width="1"/>
    </g>
    <g id="Group_9" data-name="Group 9" transform="translate(1460.103 -1032.794)">
      <path id="Path_11" data-name="Path 11" d="M0,0A7.1,7.1,0,0,0,7.1-7.1a7.1,7.1,0,0,0-7.1-7.1A7.1,7.1,0,0,0-7.1-7.1,7.1,7.1,0,0,0,0,0" fill="#c06"/>
    </g>
  </g>
</svg>
