<svg xmlns="http://www.w3.org/2000/svg" width="22.782" height="18.64" viewBox="0 0 22.782 18.64">
  <g id="Group_139" data-name="Group 139" transform="translate(-34.016 -218.5)">
    <g id="Group_118" data-name="Group 118" transform="translate(52.078 225.383)">
      <path id="Path_114" data-name="Path 114" d="M0,0H-1.85a.606.606,0,0,0-.6.605V11.258a.3.3,0,0,0,.3.3H.309a.3.3,0,0,0,.3-.3V.605A.605.605,0,0,0,0,0ZM.013,10.962H-1.863V.605A.014.014,0,0,1-1.85.592H0A.014.014,0,0,1,.013.605Z" fill="none" stroke="#b8cad9" stroke-linecap="round" stroke-linejoin="round" stroke-miterlimit="10" stroke-width="0.405"/>
    </g>
    <g id="Group_120" data-name="Group 120" transform="translate(43.201 226.393)">
      <path id="Path_116" data-name="Path 116" d="M0,0H-1.85a.606.606,0,0,0-.6.605v9.644a.3.3,0,0,0,.3.3H.309a.3.3,0,0,0,.3-.3V.605A.605.605,0,0,0,0,0ZM.013,9.953H-1.863V.605A.014.014,0,0,1-1.85.592H0A.014.014,0,0,1,.013.605Z" fill="none" stroke="#b8cad9" stroke-linecap="round" stroke-linejoin="round" stroke-miterlimit="10" stroke-width="0.405"/>
    </g>
    <g id="Group_122" data-name="Group 122" transform="translate(47.64 228.054)">
      <path id="Path_118" data-name="Path 118" d="M0,0H-1.85a.606.606,0,0,0-.6.605V8.588a.3.3,0,0,0,.3.3H.309a.3.3,0,0,0,.3-.3V.605A.605.605,0,0,0,0,0ZM.013,8.292H-1.863V.605A.015.015,0,0,1-1.85.592H0A.015.015,0,0,1,.013.605Z" fill="none" stroke="#b8cad9" stroke-linecap="round" stroke-linejoin="round" stroke-miterlimit="10" stroke-width="0.405"/>
    </g>
    <g id="Group_124" data-name="Group 124" transform="translate(38.762 229.453)">
      <path id="Path_120" data-name="Path 120" d="M0,0H-1.85a.606.606,0,0,0-.6.605V7.189a.3.3,0,0,0,.3.3H.309a.3.3,0,0,0,.3-.3V.605A.605.605,0,0,0,0,0ZM.013,6.893H-1.863V.605A.015.015,0,0,1-1.85.592H0A.015.015,0,0,1,.013.605Z" fill="none" stroke="#b8cad9" stroke-linecap="round" stroke-linejoin="round" stroke-miterlimit="10" stroke-width="0.405"/>
    </g>
    <g id="Group_126" data-name="Group 126" transform="translate(56.359 218.71)">
      <path id="Path_122" data-name="Path 122" d="M0,0A.288.288,0,0,0-.1-.006l-.033,0H-.14L-2.676.043a.3.3,0,0,0-.29.3.3.3,0,0,0,.3.29h.006L-.965.6l-8.7,6.487-4.269-2.519-.005,0-.018-.01-.01,0-.016-.007-.012,0-.015,0-.014,0-.014,0-.014,0h-.056l-.016,0-.012,0-.017,0-.01,0-.017.005-.011,0-.015.006-.012.006-.013.007-.014.009-.009.006-.016.012-.005,0-4.689,3.937-2.925.437a.3.3,0,0,0-.249.336.3.3,0,0,0,.292.252.325.325,0,0,0,.044,0l3.008-.449h0l.007,0a.287.287,0,0,0,.042-.011h0a.239.239,0,0,0,.043-.02l.006,0a.328.328,0,0,0,.038-.027l0,0,4.593-3.856L-9.8,7.7l.007,0,.023.011.013.006.021.007.015,0,.02,0,.016,0,.027,0h.008l.042,0,.015,0,.027-.006.016-.006.027-.011.012-.006a.255.255,0,0,0,.039-.024L-.548,1.028-.925,2.616a.3.3,0,0,0,.219.356.271.271,0,0,0,.069.008.3.3,0,0,0,.288-.227L.22.356A.3.3,0,0,0,0,0Z" fill="none" stroke="#b8cad9" stroke-linecap="round" stroke-linejoin="round" stroke-miterlimit="10" stroke-width="0.405"/>
    </g>
  </g>
</svg>
