<svg xmlns="http://www.w3.org/2000/svg" xmlns:xlink="http://www.w3.org/1999/xlink" width="1501" height="1066" viewBox="0 0 1501 1066">
  <defs>
    <clipPath id="clip-path">
      <path id="Path_134" data-name="Path 134" d="M0,0H1501V-1066H0Z" fill="none"/>
    </clipPath>
  </defs>
  <g id="Group_138" data-name="Group 138" transform="translate(0 1066)" clip-path="url(#clip-path)">
    <g id="Group_136" data-name="Group 136" transform="translate(33.627 -766.86)">
      <path id="Path_132" data-name="Path 132" d="M0,0,5.681-5.681a7.121,7.121,0,0,1-.832-3.337,7.13,7.13,0,0,1,7.122-7.122,7.13,7.13,0,0,1,7.122,7.122A7.13,7.13,0,0,1,11.971-1.9a7.112,7.112,0,0,1-3.337-.832L2.953,2.953a1.189,1.189,0,0,1-1.679,0L0,1.679A1.188,1.188,0,0,1,0,0M.815.84A.025.025,0,0,0,.822.857L2.1,2.131h.035l5.5-5.5A7.184,7.184,0,0,1,6.324-4.68Zm5.2-9.858a5.965,5.965,0,0,0,5.959,5.959A5.965,5.965,0,0,0,17.93-9.018a5.965,5.965,0,0,0-5.959-5.959A5.965,5.965,0,0,0,6.012-9.018" fill="#b8cad9"/>
    </g>
    <g id="Group_137" data-name="Group 137" transform="translate(45.766 -781.094)">
      <path id="Path_133" data-name="Path 133" d="M0,0A.582.582,0,0,1,.581.581.581.581,0,0,1,0,1.162,4.192,4.192,0,0,0-4.187,5.35a.582.582,0,0,1-.581.581A.582.582,0,0,1-5.35,5.35,5.356,5.356,0,0,1,0,0" fill="#b8cad9"/>
    </g>
  </g>
</svg>
