<svg xmlns="http://www.w3.org/2000/svg" width="19.161" height="19.161" viewBox="0 0 19.161 19.161">
  <g id="Group_115" data-name="Group 115" transform="translate(10.949 19.161)">
    <path id="Path_111" data-name="Path 111" d="M0,0H-2.737A.913.913,0,0,1-3.65-.912v-2.06a.449.449,0,0,0-.281-.422.45.45,0,0,0-.5.1L-5.885-1.838a.913.913,0,0,1-1.29,0L-9.111-3.774a.906.906,0,0,1-.267-.645.906.906,0,0,1,.267-.645l1.457-1.457a.445.445,0,0,0,.1-.5A.446.446,0,0,0-7.977-7.3h-2.06a.914.914,0,0,1-.912-.913v-2.737a.913.913,0,0,1,.912-.913h2.06a.446.446,0,0,0,.421-.281.447.447,0,0,0-.1-.5L-9.111-14.1a.906.906,0,0,1-.267-.645.906.906,0,0,1,.267-.645l1.936-1.936a.913.913,0,0,1,1.29,0l1.456,1.456a.444.444,0,0,0,.5.1.445.445,0,0,0,.282-.421v-2.06a.913.913,0,0,1,.913-.912H0a.913.913,0,0,1,.912.912v2.06a.446.446,0,0,0,.282.421.446.446,0,0,0,.5-.1l1.457-1.456a.933.933,0,0,1,1.29,0l1.936,1.936a.914.914,0,0,1,0,1.29L4.917-12.641a.45.45,0,0,0-.1.5.449.449,0,0,0,.422.281H7.3a.913.913,0,0,1,.912.913v2.737A.914.914,0,0,1,7.3-7.3H5.24a.449.449,0,0,0-.422.281.448.448,0,0,0,.1.5L6.374-5.064a.914.914,0,0,1,0,1.29L4.438-1.838a.933.933,0,0,1-1.29,0L1.691-3.3a.448.448,0,0,0-.5-.1.449.449,0,0,0-.282.422v2.06A.913.913,0,0,1,0,0M-4.115-4.344a1.4,1.4,0,0,1,.533.107,1.349,1.349,0,0,1,.845,1.265v2.06H0v-2.06A1.349,1.349,0,0,1,.845-4.237a1.35,1.35,0,0,1,1.492.3L3.793-2.484,5.729-4.419,4.272-5.876a1.348,1.348,0,0,1-.3-1.491A1.349,1.349,0,0,1,5.24-8.212H7.3v-2.737H5.24a1.349,1.349,0,0,1-1.265-.845,1.35,1.35,0,0,1,.3-1.492l1.457-1.456L3.793-16.678,2.337-15.221a1.348,1.348,0,0,1-1.492.3A1.347,1.347,0,0,1,0-16.189v-2.06H-2.737v2.06a1.349,1.349,0,0,1-.845,1.265,1.351,1.351,0,0,1-1.492-.3L-6.53-16.678l-1.936,1.936,1.457,1.456a1.348,1.348,0,0,1,.3,1.492,1.346,1.346,0,0,1-1.264.845h-2.06v2.737h2.06a1.346,1.346,0,0,1,1.264.845,1.346,1.346,0,0,1-.3,1.491L-8.466-4.419-6.53-2.484-5.074-3.94a1.35,1.35,0,0,1,.959-.4" fill="#b8cad9"/>
  </g>
</svg>
